<mxfile host="app.diagrams.net" modified="2024-03-06T10:22:38.068Z" agent="Mozilla/5.0 (Windows NT 10.0; Win64; x64) AppleWebKit/537.36 (KHTML, like Gecko) Chrome/122.0.0.0 Safari/537.36" version="24.0.1" etag="ajC6C6-HH1HBQlFSv25N" type="github">
  <diagram name="Page-1" id="JOtHikPZU_moqNZYZcn_">
    <mxGraphModel>
      <root>
        <mxCell id="0" />
        <mxCell id="1" parent="0" />
      </root>
    </mxGraphModel>
  </diagram>
</mxfile>
